<svg width="52" height="37" viewBox="0 0 52 37" fill="none" xmlns="http://www.w3.org/2000/svg">
<g clip-path="url(#clip0_2026_626)">
<path d="M13.9904 36.9999C13.5965 36.9999 13.2201 36.8392 12.9415 36.5574L10.341 33.9063L0.433058 23.8791C-0.14362 23.2956 -0.14362 22.3466 0.433058 21.7609L14.1928 7.83855C14.4822 7.5457 14.8609 7.40038 15.2395 7.40038C15.6182 7.40038 15.9968 7.5457 16.2862 7.83855L22.4164 14.0412C22.6928 14.3208 22.8495 14.7017 22.8495 15.1003C22.8495 15.4988 22.6928 15.8797 22.4164 16.1594L19.7964 18.8104C19.5069 19.1033 19.1283 19.2486 18.7496 19.2486C18.371 19.2486 17.9923 19.1033 17.7029 18.8104L15.2395 16.3179L8.77203 22.8618L13.9708 28.1221L35.2883 6.55487C35.5777 6.26202 35.9564 6.1167 36.335 6.1167C36.7137 6.1167 37.0923 6.26202 37.3818 6.55487L51.1633 20.4772C51.4396 20.7568 51.5963 21.1378 51.5963 21.5363C51.5963 21.9348 51.4396 22.3158 51.1633 22.5954L37.3818 36.5398C37.1054 36.8194 36.7289 36.9779 36.335 36.9779C35.9412 36.9779 35.5647 36.8194 35.2883 36.5398L25.1736 26.3055L15.0393 36.5596C14.763 36.8392 14.3865 36.9977 13.9926 36.9977L13.9904 36.9999ZM36.335 28.0802L42.8025 21.5363L36.335 14.9924L29.8676 21.5363L36.335 28.0802Z" fill="white"/>
<path d="M36.335 7.61401L35.025 8.93953L25.154 18.9272L22.5339 21.5782L13.973 30.2403L6.68075 22.8619L15.2417 14.1998L18.7496 17.7492L21.3697 15.0981L15.2395 8.89549L1.47977 22.82L11.3943 32.8517L13.9948 35.5027L16.6148 32.8517L25.1758 24.1896L36.3372 35.4829L50.1187 21.5386L36.3372 7.61622L36.335 7.61401ZM27.7741 21.5364L36.335 12.8742L44.896 21.5364L36.335 30.1985L27.7741 21.5364Z" fill="#564BC6"/>
<path d="M25.1736 10.908C23.7286 10.908 22.3729 10.3421 21.3588 9.31385C20.3447 8.28779 19.7833 6.91603 19.7833 5.454C19.7833 3.99197 20.3426 2.62021 21.3588 1.59414C22.3729 0.568079 23.7286 0 25.1736 0C26.6186 0 27.9743 0.565877 28.9884 1.59414C31.0905 3.72114 31.0905 7.18686 28.9884 9.31385C27.9743 10.3399 26.6186 10.908 25.1736 10.908Z" fill="white"/>
<path d="M27.9438 2.65115C29.465 4.19025 29.465 6.71578 27.9438 8.25488C26.4227 9.79397 23.9267 9.79397 22.4056 8.25488C20.8844 6.71578 20.8844 4.19025 22.4056 2.65115C23.9267 1.11205 26.4227 1.11205 27.9438 2.65115Z" fill="#FFC233"/>
</g>
<defs>
<clipPath id="clip0_2026_626">
<rect width="52" height="37" fill="white"/>
</clipPath>
</defs>
</svg>
