<svg width="34" height="23" viewBox="0 0 34 23" fill="none" xmlns="http://www.w3.org/2000/svg">
<path d="M23.8053 4.14459L22.911 5.04021L16.1721 11.7886L14.3834 13.5798L8.53892 19.4326L3.56056 14.4472L9.40505 8.59443L11.7999 10.9927L13.5886 9.20142L9.40356 5.01046L0.0098877 14.4189L6.77844 21.1971L8.55378 22.9883L10.3425 21.1971L16.187 15.3443L23.8068 22.9749L33.2153 13.5531L23.8068 4.14608L23.8053 4.14459ZM17.9608 13.5516L23.8053 7.69881L29.6498 13.5516L23.8053 19.4044L17.9608 13.5516Z" fill="#564BC6"/>
<path d="M18.0767 0.79124C19.1152 1.83117 19.1152 3.53761 18.0767 4.57754C17.0382 5.61747 15.3342 5.61747 14.2958 4.57754C13.2573 3.53761 13.2573 1.83117 14.2958 0.79124C15.3342 -0.248691 17.0382 -0.248691 18.0767 0.79124Z" fill="#FFC233"/>
</svg>
