<svg width="142" height="25" viewBox="0 0 142 25" fill="none" xmlns="http://www.w3.org/2000/svg">
<g clip-path="url(#clip0_72_4604)">
<path d="M45.4337 16.2936C45.0028 16.5614 44.4977 16.6805 43.948 16.6805C43.0566 16.6805 42.3287 16.368 41.779 15.7432C41.2293 15.1332 40.947 14.3001 40.947 13.2735C40.947 12.247 41.2293 11.4287 41.779 10.8039C42.3287 10.179 43.0566 9.86661 43.948 9.86661C44.8394 9.86661 44.988 10.0005 45.4337 10.2534C45.8496 10.5063 46.1765 10.8634 46.4142 11.3097H49.1626C48.8358 10.2088 48.2267 9.31614 47.3501 8.66154C46.429 7.97718 45.2851 7.62012 43.9926 7.62012C42.7001 7.62012 41.9573 7.85816 41.1253 8.33423C40.2934 8.81031 39.6248 9.47979 39.1643 10.3278C38.9266 10.7593 38.7483 11.2056 38.6294 11.6965C38.5106 12.1875 38.4512 12.7082 38.4512 13.2438C38.4512 14.3298 38.6889 15.3117 39.1643 16.1598C39.6248 17.0078 40.2934 17.6772 41.1253 18.1384C41.9573 18.6145 42.9229 18.8526 43.9926 18.8526C45.0622 18.8526 46.429 18.5104 47.3501 17.826C48.2267 17.1863 48.8358 16.2936 49.1626 15.1778H46.4142C46.1765 15.639 45.8496 15.9961 45.4337 16.2341V16.2936Z" fill="white"/>
<path d="M51.1982 9.77736V18.8228C52.5799 18.7484 53.6644 17.6029 53.6644 16.2044V7.15894C52.2828 7.23332 51.1982 8.37888 51.1982 9.77736Z" fill="white"/>
<path d="M58.2694 6.56381C57.9871 6.29602 57.6305 6.177 57.1997 6.177C56.7689 6.177 56.3975 6.3109 56.1152 6.56381C55.8329 6.83161 55.6992 7.14403 55.6992 7.53085C55.6992 7.91766 55.8329 8.23008 56.1152 8.483C56.3975 8.75079 56.754 8.86981 57.1997 8.86981C57.6454 8.86981 57.9871 8.73592 58.2694 8.483C58.5516 8.23008 58.6853 7.91766 58.6853 7.53085C58.6853 7.14403 58.5516 6.81673 58.2694 6.56381ZM55.9518 12.7231V18.8228C57.3334 18.7484 58.4328 17.6029 58.4328 16.2044V10.1046C57.0511 10.179 55.9518 11.3246 55.9518 12.7231Z" fill="white"/>
<path d="M66.8862 10.1048V11.3991L66.6336 11.0718C66.3662 10.7445 66.0245 10.4767 65.5937 10.2833C65.2668 10.1345 64.8806 10.0453 64.4794 10.0155C63.7812 9.95602 62.7115 10.2089 62.147 10.566C61.5379 10.9379 61.0476 11.4735 60.6911 12.1579C60.3345 12.8274 60.1562 13.6159 60.1562 14.4787C60.1562 15.3416 60.3345 16.1301 60.6911 16.7996C61.0476 17.4691 61.5379 18.0047 62.1321 18.3766C62.7264 18.7486 63.3949 18.942 64.0932 18.942C64.7914 18.942 65.1331 18.8378 65.5491 18.6147C65.9799 18.4064 66.3365 18.1088 66.6336 17.7518L66.8862 17.4542V23.1225C68.2678 23.0481 69.3523 21.9026 69.3523 20.5041V12.7232C69.3523 11.3247 68.253 10.1792 66.8862 10.1048ZM66.589 15.7582C66.3811 16.1153 66.1136 16.3831 65.7868 16.5616C65.46 16.7401 65.1183 16.8294 64.7766 16.8294C64.4349 16.8294 64.0932 16.7401 63.7663 16.5616C63.4395 16.3831 63.1721 16.1153 62.9641 15.7731C62.7561 15.4309 62.6521 14.9846 62.6521 14.4787C62.6521 13.9729 62.7561 13.5415 62.9641 13.1844C63.1721 12.8274 63.4395 12.5596 63.7663 12.381C64.42 12.024 65.1628 12.024 65.7868 12.381C66.1136 12.5596 66.3811 12.8274 66.5742 13.1695C66.7822 13.5117 66.8713 13.958 66.8713 14.4639C66.8713 14.9697 66.7673 15.4011 66.5742 15.7582H66.589Z" fill="white"/>
<path d="M79.5293 9.46508C79.2322 8.94437 78.7865 8.52781 78.1923 8.23026C77.598 7.93271 76.8403 7.78394 75.9638 7.78394H71.6406V18.823C73.0223 18.7486 74.1068 17.603 74.1068 16.2046V14.7614H75.9638C76.8552 14.7614 77.6129 14.5978 78.222 14.2854C78.8162 13.9581 79.2619 13.5415 79.5442 13.0208C79.8265 12.5001 79.975 11.9199 79.975 11.295C79.975 10.6702 79.8265 10.0007 79.5293 9.47996V9.46508ZM77.0335 12.4257C76.7512 12.6935 76.3204 12.8423 75.7558 12.8423H74.1216V9.718H75.7558C76.3204 9.718 76.7512 9.8519 77.0335 10.1346C77.3158 10.4024 77.4643 10.8041 77.4643 11.2801C77.4643 11.7562 77.3158 12.1579 77.0335 12.4257Z" fill="white"/>
<path d="M85.5906 10.4022C85.1301 10.67 84.7438 11.0568 84.4318 11.5329L84.1644 11.9346V10.1046C82.7828 10.179 81.6982 11.3246 81.6982 12.7231V18.8228C83.0799 18.7484 84.1644 17.6029 84.1644 16.2044V14.791C84.1644 14.0025 84.3575 13.4521 84.7289 13.1248C85.1004 12.8123 85.65 12.6487 86.3631 12.6487H86.9722V10.0154C86.4671 10.0303 85.9917 10.1642 85.5758 10.4171L85.5906 10.4022Z" fill="white"/>
<path d="M96.5248 12.0835C96.1385 11.3992 95.5888 10.8785 94.9054 10.5214C94.222 10.1644 93.4346 9.97095 92.5878 9.97095C91.741 9.97095 90.9536 10.1495 90.2702 10.5214C89.5868 10.8785 89.0372 11.4141 88.6509 12.0835C88.2498 12.7679 88.0566 13.5564 88.0566 14.4639C88.0566 15.3714 88.2498 16.1748 88.636 16.8443C89.0223 17.5138 89.5571 18.0494 90.2405 18.4064C90.5822 18.585 90.9388 18.7337 91.325 18.823C91.7113 18.9123 92.1124 18.9569 92.5433 18.9569C93.3901 18.9569 94.1775 18.7784 94.8757 18.4064C95.5591 18.0494 96.1088 17.5138 96.5099 16.8443C96.911 16.16 97.1042 15.3714 97.1042 14.4639C97.1042 13.5564 96.911 12.7679 96.5099 12.0835H96.5248ZM93.9992 16.2195C93.806 16.4277 93.5832 16.5765 93.3306 16.6955C93.0929 16.7997 92.8255 16.8592 92.5433 16.8592C91.9787 16.8592 91.5033 16.6509 91.1319 16.2343C90.7605 15.8178 90.5674 15.2227 90.5674 14.4788C90.5674 13.7349 90.7605 13.1101 91.1319 12.7084C91.5182 12.2918 91.9936 12.0835 92.573 12.0835C93.1524 12.0835 93.6129 12.2918 93.9992 12.7084C94.3854 13.125 94.5786 13.7201 94.5786 14.4639C94.5786 15.2078 94.3855 15.8178 93.9843 16.2195H93.9992Z" fill="white"/>
<path d="M107.563 12.0686C107.222 11.3992 106.761 10.8785 106.182 10.5065C105.602 10.1495 104.949 9.95605 104.236 9.95605C103.523 9.95605 103.092 10.0751 102.646 10.328C102.2 10.5809 101.844 10.8933 101.591 11.295L101.324 11.6967V10.09C99.9421 10.1643 98.8428 11.3099 98.8428 12.7084V23.1077C100.224 23.0333 101.324 21.8877 101.324 20.4893V17.2311L101.576 17.6328C101.829 18.0196 102.185 18.3469 102.646 18.585C103.107 18.8379 103.627 18.9569 104.236 18.9569C104.845 18.9569 105.602 18.7784 106.182 18.4064C106.761 18.0494 107.222 17.5138 107.549 16.8294C107.89 16.1451 108.054 15.3417 108.054 14.449C108.054 13.5564 107.875 12.753 107.549 12.0686H107.563ZM104.934 16.1748C104.518 16.6063 104.013 16.8294 103.433 16.8294C102.854 16.8294 102.349 16.6211 101.933 16.1897C101.532 15.7731 101.324 15.178 101.324 14.4639C101.324 13.7498 101.532 13.1547 101.933 12.7381C102.334 12.3067 102.839 12.0984 103.433 12.0984C104.028 12.0984 104.533 12.3067 104.949 12.7381C105.157 12.9464 105.305 13.1993 105.409 13.482C105.513 13.7647 105.558 14.092 105.558 14.449C105.558 15.178 105.35 15.7582 104.934 16.1897V16.1748Z" fill="white"/>
<path d="M118.007 14.3151C118.007 13.4374 117.814 12.6637 117.457 12.0091C117.086 11.3545 116.581 10.8487 115.927 10.4916C115.273 10.1346 114.516 9.95605 113.669 9.95605C112.822 9.95605 112.035 10.1346 111.366 10.5065C110.698 10.8636 110.193 11.3843 109.821 12.0686C109.45 12.7381 109.271 13.5415 109.271 14.449C109.271 15.3566 109.465 16.1599 109.836 16.8294C110.207 17.4989 110.727 18.0196 111.396 18.3915C112.064 18.7486 112.822 18.942 113.684 18.942C114.545 18.942 115.036 18.8081 115.615 18.5552C116.18 18.3023 116.655 17.9303 117.041 17.484C117.383 17.0823 117.621 16.6211 117.784 16.1153H115.125C114.828 16.6955 114.308 16.9931 113.61 16.9931C112.911 16.9931 112.688 16.8294 112.347 16.517C112.005 16.2046 111.812 15.7285 111.767 15.1483V14.9995H118.022C118.037 14.7763 118.052 14.5532 118.052 14.33L118.007 14.3151ZM115.467 13.7349H111.708L111.738 13.5713C111.812 13.0357 112.035 12.634 112.376 12.3364C112.718 12.0538 113.149 11.905 113.639 11.905C114.13 11.905 114.59 12.0538 114.947 12.3662C115.303 12.6786 115.481 13.0952 115.481 13.601V13.7349H115.467Z" fill="white"/>
<path d="M123.637 10.4022C123.177 10.67 122.791 11.0568 122.479 11.5329L122.211 11.9346V10.1046C120.83 10.179 119.745 11.3246 119.745 12.7231V18.8228C121.127 18.7484 122.211 17.6029 122.211 16.2044V14.791C122.211 14.0025 122.404 13.4521 122.776 13.1248C123.147 12.8123 123.697 12.6487 124.41 12.6487H125.019V10.0154C124.514 10.0303 124.039 10.1642 123.623 10.4171L123.637 10.4022Z" fill="white"/>
<path d="M130.53 16.7549C130.189 16.7549 129.951 16.6805 129.788 16.5466C129.624 16.3978 129.55 16.1747 129.55 15.8622V12.0982H131.362V10.0898H129.55V7.88794H129.134C128.005 7.88794 127.084 8.81034 127.084 9.94102V10.0898H125.984V12.0982H127.084V15.8176C127.084 16.8739 127.351 17.6475 127.871 18.1087C128.406 18.5699 129.164 18.808 130.114 18.808H131.377V17.588C131.377 17.1268 131.006 16.74 130.53 16.74V16.7549Z" fill="white"/>
<path d="M138.36 12.8124L137.186 16.0111L135.998 12.8124C135.419 11.2354 133.918 10.1643 132.239 10.1196L135.834 18.6741L134.973 20.6082C134.72 21.1587 134.765 21.7984 135.092 22.3042C135.404 22.7803 135.924 23.0927 136.488 23.1076L142 10.1196C140.366 10.2089 138.91 11.2801 138.345 12.8273L138.36 12.8124Z" fill="white"/>
<path d="M9.55078 25.0001C9.28188 25.0001 9.02486 24.8915 8.8347 24.7011L7.05937 22.9098L0.29527 16.1347C-0.0984233 15.7404 -0.0984233 15.0992 0.29527 14.7035L9.68894 5.29647C9.88653 5.0986 10.145 5.00041 10.4035 5.00041C10.662 5.00041 10.9205 5.0986 11.1181 5.29647L15.3032 9.48744C15.4918 9.67638 15.5988 9.93376 15.5988 10.203C15.5988 10.4723 15.4918 10.7297 15.3032 10.9186L13.5145 12.7099C13.3169 12.9078 13.0584 13.0059 12.7999 13.0059C12.5414 13.0059 12.2829 12.9078 12.0853 12.7099L10.4035 11.0258L5.98822 15.4473L9.53741 19.0015L24.0907 4.42912C24.2883 4.23125 24.5468 4.13306 24.8053 4.13306C25.0638 4.13306 25.3223 4.23125 25.5199 4.42912L34.9284 13.8361C35.1171 14.025 35.224 14.2824 35.224 14.5517C35.224 14.821 35.1171 15.0784 34.9284 15.2673L25.5199 24.6892C25.3312 24.8781 25.0742 24.9852 24.8053 24.9852C24.5364 24.9852 24.2794 24.8781 24.0907 24.6892L17.1855 17.7742L10.2669 24.7026C10.0782 24.8915 9.82116 24.9986 9.55226 24.9986L9.55078 25.0001ZM24.8053 18.9733L29.2206 14.5517L24.8053 10.1301L20.39 14.5517L24.8053 18.9733Z" fill="white"/>
<path d="M24.8052 5.14453L23.9108 6.04015L17.172 12.7885L15.3833 14.5798L9.5388 20.4326L4.56043 15.4471L10.4049 9.59436L12.7998 11.9926L14.5885 10.2014L10.4034 6.0104L1.00977 15.4189L7.77832 22.197L9.55365 23.9883L11.3424 22.197L17.1868 16.3442L24.8067 23.9749L34.2152 14.553L24.8067 5.14602L24.8052 5.14453ZM18.9607 14.5515L24.8052 8.69874L30.6497 14.5515L24.8052 20.4043L18.9607 14.5515Z" fill="#564BC6"/>
<path d="M17.1858 7.37027C16.1993 7.37027 15.2738 6.98792 14.5815 6.29314C13.8892 5.59986 13.5059 4.67299 13.5059 3.68513C13.5059 2.69727 13.8877 1.77041 14.5815 1.07712C15.2738 0.383837 16.1993 0 17.1858 0C18.1722 0 19.0978 0.382349 19.7901 1.07712C21.2252 2.51428 21.2252 4.85599 19.7901 6.29314C19.0978 6.98643 18.1722 7.37027 17.1858 7.37027Z" fill="white"/>
<path d="M19.0774 1.79118C20.1158 2.83111 20.1158 4.53755 19.0774 5.57748C18.0389 6.61741 16.3349 6.61741 15.2964 5.57748C14.258 4.53755 14.258 2.83111 15.2964 1.79118C16.3349 0.751248 18.0389 0.751248 19.0774 1.79118Z" fill="#FFC233"/>
</g>
<defs>
<clipPath id="clip0_72_4604">
<rect width="142" height="25" fill="white"/>
</clipPath>
</defs>
</svg>
