<svg xmlns="http://www.w3.org/2000/svg" width="96" height="28" viewBox="0 0 96 28" fill="none">
  <g clip-path="url(#clip0_1_2651)">
    <path d="M20.1555 12.4861C20.1555 9.92712 18.993 8.69726 17.1717 8.66417C15.3339 8.64763 13.5846 10.5393 13.5846 13.0431V18.5196C13.5846 20.4278 12.0346 21.972 10.1192 21.972V12.4861C10.1192 9.92712 8.97336 8.69726 7.12444 8.66417C5.27552 8.64763 3.52624 10.5393 3.52624 13.0431V18.4589C3.52624 20.4002 1.94856 21.972 0 21.972V8.20642C0 6.84971 1.1016 5.75773 2.46338 5.75773H3.52624V7.03171C4.6998 5.97833 6.08373 5.43786 7.66694 5.43786C9.693 5.43786 11.1323 6.30372 12.1176 7.85346C13.413 6.3313 15.2342 5.4544 17.2437 5.43786C20.7422 5.41028 23.6651 8.14576 23.6651 11.7636V18.4975C23.6651 20.4223 22.0985 21.9831 20.1665 21.9831L20.1555 12.4861Z" fill="#A9F4E0"/>
    <path d="M28.7469 24.6689L30.9999 19.5068L23.6928 5.80737H25.4476C26.7263 5.80737 27.8999 6.51881 28.4867 7.64389L32.7602 15.8338L36.3695 7.98582C36.9784 6.65669 38.3125 5.80737 39.7795 5.80737H41.0749L30.9335 28C29.2174 28 28.0604 26.2407 28.7469 24.6689Z" fill="#A9F4E0"/>
    <path d="M54.6594 20.505C53.2312 21.6742 51.4709 22.3029 49.4725 22.3195C44.7118 22.3636 41.0416 18.5747 41.097 13.727C41.1136 12.1442 41.4513 10.6827 42.1543 9.38113C42.8739 8.06303 43.8704 7.03723 45.1491 6.29269C46.4389 5.53161 47.8948 5.16762 49.467 5.16762C51.3934 5.16762 53.1703 5.75222 54.593 6.83868V0C56.5028 0 58.0473 1.5387 58.0473 3.4414V21.9886H56.1375C55.3237 21.9831 54.6594 21.3213 54.6594 20.505ZM44.6122 13.727C44.6288 15.2492 45.1104 16.479 46.0514 17.4442C47.0036 18.4258 48.1993 18.8946 49.6773 18.9057C52.5282 18.9332 54.7591 16.65 54.7591 13.738C54.7591 10.8261 52.5282 8.57042 49.6773 8.57042C46.8264 8.57042 44.5789 10.815 44.6122 13.727Z" fill="#A9F4E0"/>
    <path d="M73.7908 19.9756C72.3958 21.1889 70.7351 21.8507 68.6647 21.8507C67.1203 21.8507 65.6699 21.4867 64.3746 20.7532C63.0958 20.0197 62.0994 18.9939 61.3632 17.7089C60.6269 16.4073 60.2782 14.9734 60.2616 13.4071C60.1896 8.66417 63.9649 4.9029 68.6814 4.96356C70.7074 4.99114 72.4733 5.60882 73.9292 6.86626V5.27792H75.1913C76.4313 5.27792 77.4444 6.28166 77.4444 7.52255V21.5253H75.3574C74.4883 21.5253 73.7908 20.8304 73.7908 19.9756ZM63.7712 13.4016C63.7878 14.8631 64.2417 16.0654 65.2105 17.0471C66.1626 17.9957 67.3694 18.481 68.853 18.4975C71.6872 18.5251 73.9237 16.3025 73.9237 13.4016C73.9237 10.5007 71.7038 8.30569 68.853 8.30569C66.0021 8.30569 63.7435 10.5503 63.7712 13.4016Z" fill="#A9F4E0"/>
    <path d="M83.6665 24.1946L85.9195 19.0325L78.6179 5.33858H80.4004C81.6626 5.33858 82.8195 6.039 83.4008 7.15304L87.6854 15.365L91.3998 7.29092C91.9479 6.09966 93.1436 5.33858 94.4555 5.33858H96L85.8586 27.5257C84.137 27.5257 82.9801 25.7664 83.6665 24.1946Z" fill="#A9F4E0"/>
  </g>
  <defs>
    <clipPath id="clip0_1_2651">
      <rect width="96" height="28" fill="white"/>
    </clipPath>
  </defs>
</svg>