<svg xmlns="http://www.w3.org/2000/svg" id="Layer_1" viewBox="0 0 244.1 173"><defs><style>.cls-1{fill:#ffc233;}.cls-1,.cls-2,.cls-3{stroke-width:0px;}.cls-2{fill:#564bc6;}.cls-3{fill:#fff;}</style></defs><path class="cls-3" d="M66.19,173c-1.86,0-3.64-.75-4.96-2.07l-12.3-12.4L2.05,111.65c-2.73-2.73-2.73-7.17,0-9.9L67.15,36.65c1.37-1.37,3.16-2.05,4.95-2.05s3.58.68,4.95,2.05l29,29c1.31,1.31,2.05,3.09,2.05,4.95s-.74,3.64-2.05,4.95l-12.4,12.4c-1.37,1.37-3.16,2.05-4.95,2.05s-3.58-.68-4.95-2.05l-11.65-11.65-30.6,30.6,24.6,24.6L166.95,30.65c1.37-1.37,3.16-2.05,4.95-2.05s3.58.68,4.95,2.05l65.2,65.1c1.31,1.31,2.05,3.09,2.05,4.95s-.74,3.64-2.05,4.95l-65.2,65.2c-1.31,1.31-3.09,2.05-4.95,2.05s-3.64-.74-4.95-2.05l-47.85-47.85-47.95,47.95c-1.31,1.31-3.09,2.05-4.95,2.05,0,0-.01,0,0,0h0ZM171.9,131.3l30.6-30.6-30.6-30.6-30.6,30.6,30.6,30.6Z"></path><path class="cls-2" d="M171.9,35.6h0l-6.2,6.2-46.7,46.7-12.4,12.4h0l-40.5,40.5-34.5-34.5h0l40.5-40.5,16.6,16.6,12.4-12.4-29-29L7,106.7l46.9,46.9h0l12.3,12.4h0l12.4-12.4h0l40.5-40.5,52.8,52.8,65.2-65.2-65.2-65.1h0ZM131.4,100.7l40.5-40.5,40.5,40.5-40.5,40.5-40.5-40.5Z"></path><path class="cls-3" d="M119.1,51c-6.84,0-13.25-2.65-18.05-7.45-4.8-4.8-7.45-11.21-7.45-18.05s2.65-13.25,7.45-18.05c4.8-4.8,11.21-7.45,18.05-7.45s13.25,2.65,18.05,7.45c9.95,9.95,9.95,26.15,0,36.1-4.8,4.8-11.21,7.45-18.05,7.45Z"></path><path class="cls-1" d="M132.2,12.4h0c7.2,7.2,7.2,19,0,26.2h0c-7.2,7.2-19,7.2-26.2,0h0c-7.2-7.2-7.2-19,0-26.2h0c7.2-7.2,19-7.2,26.2,0Z"></path></svg>