<?xml version="1.0" encoding="UTF-8"?><svg id="Layer_1" xmlns="http://www.w3.org/2000/svg" viewBox="0 0 116.79 80.67"><defs><style>.cls-1{fill:#ffc233;}.cls-2{fill:#fff;}</style></defs><path class="cls-2" d="m56.89,41.31h-.01s-6.28,6.26-6.28,6.26h0s-20.54,20.54-20.54,20.54l-3.14,3.14h.01s-3.14,3.15-3.14,3.15l6.26,6.26,33.09-33.09-6.26-6.26Zm-44.34,9.3l20.54-20.54,8.43,8.43,6.28-6.28-14.71-14.71L0,50.61l30.08,30.06,6.28-6.28-23.8-23.78Z"/><path class="cls-2" d="m83.71,14.5h-.01s-3.14,3.12-3.14,3.12l-23.68,23.68-6.28,6.28h0,0s.01.01.01.01l6.26,6.26,26.82,26.82,33.1-33.09L83.71,14.5Zm-20.55,33.08l20.54-20.54,20.54,20.54-20.54,20.54-20.54-20.54Z"/><polygon class="cls-2" points="86.83 23.9 83.69 27.03 63.15 47.58 56.88 53.85 33.2 77.53 26.92 71.26 30.06 68.12 50.6 47.58 50.6 47.58 56.88 41.3 80.56 17.62 86.83 23.9"/><polygon class="cls-2" points="83.71 14.5 80.57 17.63 56.89 41.31 50.61 47.59 26.93 71.27 26.92 71.26 30.06 68.12 50.6 47.58 50.6 47.58 50.6 47.58 56.88 41.3 80.56 17.62 83.69 14.48 83.71 14.5"/><rect class="cls-1" x="47.46" y="0" width="18.84" height="18.84" rx="9.42" ry="9.42" transform="translate(23.32 -37.46) rotate(45)"/></svg>